<svg width="50" height="30" viewBox="0 0 50 30" fill="none" xmlns="http://www.w3.org/2000/svg">
<path d="M43.7487 7.58656C43.7487 6.30248 44.6804 5.28478 45.8548 5.28478C47.0292 5.28478 47.8904 6.27115 47.8904 7.58656C47.8904 8.90197 47.0214 9.91968 45.8548 9.91968C44.6883 9.91968 43.7487 8.88612 43.7487 7.58656ZM39.7169 11.1724H41.361V4.01637H39.7167L39.7169 11.1724ZM39.4583 1.62841C39.4583 2.24694 39.9594 2.74815 40.5466 2.74815C41.1338 2.74815 41.6193 2.24694 41.6193 1.62841C41.6193 1.05707 41.1339 0.571529 40.5466 0.571529C39.9592 0.571529 39.4583 1.05688 39.4583 1.62841ZM33.007 7.57089C33.007 6.28682 33.9544 5.28478 35.168 5.28478C36.3815 5.28478 37.3289 6.28682 37.3289 7.57089C37.3289 8.85497 36.3735 9.91968 35.1678 9.91968C33.9622 9.91185 33.007 8.87064 33.007 7.57089ZM31.3316 7.57089C31.3316 9.71618 33.0227 11.4073 35.168 11.4073C37.3132 11.4073 39.0043 9.71618 39.0043 7.57089C39.0043 5.4256 37.3444 3.79701 35.168 3.79701C32.9915 3.78936 31.3316 5.43344 31.3316 7.57089ZM26.8847 11.1724H28.529V7.42223C28.529 5.93465 29.3197 5.27694 30.6351 5.27694C30.8778 5.27694 31.0656 5.29261 31.2378 5.33178V3.88338C31.0656 3.82854 30.7681 3.78153 30.4392 3.78153C28.208 3.78153 26.8927 5.18293 26.8927 7.41439V11.1724H26.8847ZM20.2847 7.58656C20.2847 6.30248 21.2164 5.28478 22.3908 5.28478C23.5652 5.28478 24.4264 6.27115 24.4264 7.58656C24.4264 8.90197 23.5574 9.91968 22.3908 9.91968C21.2243 9.91968 20.2847 8.88612 20.2847 7.58656ZM18.6093 7.58656C18.6093 9.66134 20.269 11.4073 22.2265 11.4073C23.0405 11.4073 23.7844 11.0784 24.2308 10.5382H24.3011V11.1803H25.9454V0H24.3011V4.60357H24.2308C23.8001 4.08688 23.0564 3.78936 22.2263 3.78936C20.2612 3.78936 18.6093 5.51962 18.6093 7.58656ZM11.3984 11.1724H13.0425V6.98369C13.0425 5.98147 13.7159 5.28478 14.6476 5.28478C15.5791 5.28478 16.2525 5.9893 16.2525 6.98369V11.1722H17.8966V6.98369C17.8966 5.23777 16.5108 3.78936 14.6474 3.78936C12.7841 3.78936 11.3984 5.23777 11.3984 6.98369V11.1724ZM3.84299 6.88185L5.62025 1.80076H5.70643L7.48369 6.88185H3.84299ZM0.5 11.1726H2.36344L3.29497 8.51064H8.04739L8.97911 11.1724H10.8269L6.69299 0H4.63389L0.5 11.1726ZM45.6983 11.4075C46.5125 11.4075 47.2562 11.0786 47.7026 10.5384H47.7731V11.1804H49.4172V0H47.7731V4.60357H47.7024C47.2719 4.08688 46.5282 3.78936 45.6983 3.78936C43.7254 3.78936 42.0811 5.51962 42.0811 7.57873C42.0811 9.64567 43.7409 11.4075 45.6983 11.4075Z" fill="#202124"/>
<path d="M37.8298 29.4226C37.822 29.3677 37.8142 29.3207 37.8063 29.2659C37.7524 28.9427 37.6872 28.6214 37.6107 28.3028C37.479 27.754 37.3089 27.2151 37.1016 26.6901C36.9314 26.2483 36.7354 25.817 36.5144 25.3984C36.2334 24.8637 35.9169 24.3484 35.5672 23.8559C35.1365 23.2531 34.659 22.6972 34.1421 22.1725C33.9246 21.9537 33.6974 21.7448 33.4611 21.5463C32.9534 21.1071 32.4114 20.7092 31.8403 20.3563C31.8482 20.3486 31.8482 20.3406 31.856 20.3328C32.1144 19.8787 32.3807 19.4324 32.6391 18.9784C32.8974 18.5398 33.1479 18.1013 33.4063 17.6551C33.5863 17.3419 33.7743 17.0211 33.9543 16.7079C34.0013 16.6296 34.0326 16.5591 34.0561 16.4729C34.1275 16.2549 34.1329 16.0207 34.0718 15.7997C34.0561 15.7449 34.0405 15.69 34.017 15.643C33.9956 15.5911 33.9693 15.5413 33.9386 15.4943C33.8398 15.3236 33.6964 15.1829 33.5238 15.0873C33.3689 14.9944 33.1947 14.9381 33.0147 14.9228C32.9393 14.915 32.8632 14.915 32.7877 14.9228C32.727 14.9285 32.6668 14.9389 32.6077 14.9542C32.3873 15.0097 32.1884 15.1296 32.0362 15.2985C31.9797 15.3611 31.9298 15.4293 31.8873 15.5022C31.7073 15.8154 31.5193 16.1364 31.3393 16.4496L30.5721 17.7726C30.3138 18.2266 30.0476 18.673 29.7891 19.127C29.7579 19.174 29.7344 19.2289 29.7031 19.2759L29.5856 19.2289C28.145 18.6808 26.5869 18.3833 24.9507 18.3833H24.8175C23.4045 18.3972 22.0031 18.6405 20.6681 19.1037L20.2217 19.268C20.1982 19.221 20.1669 19.174 20.1434 19.127C19.8851 18.673 19.6189 18.2266 19.3605 17.7726C19.1022 17.3341 18.8517 16.8957 18.5933 16.4496C18.4131 16.1362 18.2253 15.8152 18.0453 15.5022C18.0022 15.4297 17.9524 15.3615 17.8965 15.2985C17.7433 15.1309 17.5448 15.0113 17.3251 14.9542C17.2623 14.9385 17.1998 14.9307 17.1449 14.9228C17.0695 14.915 16.9934 14.915 16.9179 14.9228C16.7379 14.9381 16.5638 14.9943 16.4089 15.0872C16.2397 15.1873 16.0974 15.3269 15.994 15.4942C15.9633 15.5413 15.9371 15.5912 15.9157 15.6432C15.8939 15.6941 15.8756 15.7464 15.8608 15.7997C15.8035 16.0212 15.8089 16.2543 15.8765 16.4729C15.9 16.5512 15.9392 16.6296 15.9784 16.7079C16.1584 17.0211 16.3464 17.3419 16.5264 17.6551C16.7847 18.0936 17.0352 18.5322 17.2936 18.9784C17.5519 19.4324 17.8183 19.8787 18.0766 20.3328L18.0843 20.3406C17.559 20.6686 17.0568 21.0322 16.5812 21.4288C16.2988 21.6644 16.0271 21.9126 15.767 22.1727C15.2423 22.6894 14.7726 23.2531 14.3419 23.8561C13.9907 24.3475 13.6742 24.8628 13.3947 25.3982C13.1738 25.8169 12.9777 26.2483 12.8075 26.6901C12.6025 27.2159 12.4324 27.7546 12.2985 28.3028C12.2206 28.6211 12.1553 28.9424 12.1028 29.2659C12.0952 29.3207 12.0872 29.3677 12.0793 29.4226C12.0489 29.6125 12.0227 29.803 12.001 29.9941H37.8768C37.8768 29.7984 37.8533 29.6104 37.8298 29.4226Z" fill="#34A853"/>
<path d="M31.6918 26.4075C32.2085 26.063 32.2869 25.2645 31.8562 24.6305C31.4335 23.9884 30.6661 23.7534 30.1494 24.0979C29.6327 24.4424 29.5544 25.241 29.9851 25.8752C30.4078 26.5172 31.1751 26.7522 31.6918 26.4075ZM19.9637 25.883C20.3864 25.241 20.3159 24.4503 19.7992 24.1059C19.2823 23.7612 18.5151 23.9963 18.0925 24.6381C17.6698 25.28 17.7401 26.0708 18.2568 26.4154C18.7735 26.7599 19.5332 26.5172 19.9637 25.883Z" fill="#202124"/>
</svg>
