<svg width="29" height="28" viewBox="0 0 29 28" fill="none" xmlns="http://www.w3.org/2000/svg">
<path d="M20.3917 23.66C19.2484 24.7683 18 24.5933 16.7984 24.0683C15.5267 23.5317 14.36 23.5083 13.0184 24.0683C11.3384 24.7917 10.4517 24.5817 9.44836 23.66C3.75503 17.7917 4.59503 8.855 11.0584 8.52833C12.6334 8.61 13.73 9.39167 14.6517 9.46167C16.0284 9.18167 17.3467 8.37667 18.8167 8.48167C20.5784 8.62167 21.9084 9.32167 22.7834 10.5817C19.1434 12.7633 20.0067 17.5583 23.3434 18.9C22.6784 20.65 21.815 22.3883 20.38 23.6717L20.3917 23.66ZM14.535 8.45833C14.36 5.85667 16.4717 3.71 18.8984 3.5C19.2367 6.51 16.1684 8.75 14.535 8.45833Z" fill="#2B2B2B"/>
</svg>
