<svg width="40" height="41" viewBox="0 0 40 41" fill="none" xmlns="http://www.w3.org/2000/svg">
<g clip-path="url(#clip0_934_4528)">
<g clip-path="url(#clip1_934_4528)">
<path d="M20.0001 7.16693L14.6667 12.5003L17.3334 15.167L22.6667 9.83361C24.8667 7.6336 28.4668 7.6336 30.6668 9.83361C32.8668 12.0336 32.8668 15.6336 30.6668 17.8336L25.3334 23.167L28.0001 25.8337L33.3334 20.5003C37.0134 16.8203 37.0134 10.8469 33.3334 7.16693C29.6534 3.48692 23.6801 3.48692 20.0001 7.16693ZM22.6667 25.8337L17.3334 31.167C15.1334 33.367 11.5334 33.367 9.33336 31.167C7.13335 28.967 7.13335 25.367 9.33336 23.167L14.6667 17.8336L12 15.167L6.66669 20.5003C2.98668 24.1803 2.98668 30.1537 6.66669 33.8337C10.3467 37.5137 16.32 37.5137 20.0001 33.8337L25.3334 28.5003L22.6667 25.8337ZM13.3334 24.5003L24.0001 13.8336L26.6667 16.5003L16 27.167L13.3334 24.5003Z" fill="black"/>
</g>
</g>
<defs>
<clipPath id="clip0_934_4528">
<rect width="40" height="40" fill="white" transform="translate(0 0.5)"/>
</clipPath>
<clipPath id="clip1_934_4528">
<rect width="40" height="40" fill="white" transform="translate(0 0.5)"/>
</clipPath>
</defs>
</svg>
