<svg width="29" height="28" viewBox="0 0 29 28" fill="none" xmlns="http://www.w3.org/2000/svg">
<path d="M2.93825 19.5998H4.87492V11.3865H2.93825M3.90659 10.3131C4.04642 10.3163 4.18547 10.2914 4.31557 10.24C4.44567 10.1886 4.56419 10.1118 4.66418 10.014C4.76416 9.91617 4.8436 9.79937 4.89782 9.67043C4.95204 9.54149 4.97995 9.40302 4.97992 9.26315C4.97992 8.67982 4.51325 8.21315 3.90659 8.21315C3.76675 8.21004 3.6277 8.2349 3.4976 8.28628C3.3675 8.33765 3.24898 8.4145 3.14899 8.51232C3.04901 8.61013 2.96957 8.72693 2.91535 8.85587C2.86113 8.98481 2.83322 9.12328 2.83325 9.26315C2.83325 9.84648 3.29992 10.3131 3.90659 10.3131ZM11.2916 8.23648C8.03659 8.23648 5.98325 10.4531 5.98325 13.9998C5.98325 17.5698 8.03659 19.7865 11.2916 19.7865C14.5466 19.7865 16.5999 17.5698 16.5999 13.9998C16.5999 10.4531 14.5466 8.23648 11.2916 8.23648ZM11.2916 9.91648C13.2866 9.91648 14.5583 11.5148 14.5583 13.9998C14.5583 16.5082 13.2866 18.0831 11.2916 18.0831C9.29659 18.0831 8.03659 16.5082 8.03659 13.9998C8.03659 11.5148 9.29659 9.91648 11.2916 9.91648ZM17.4166 16.4615C17.4983 18.5148 19.1666 19.7865 21.7566 19.7865C24.4633 19.7865 26.1666 18.4565 26.1666 16.3331C26.1666 14.6648 25.2099 13.7315 22.9349 13.2065L21.6516 12.9148C20.2749 12.5881 19.7149 12.1565 19.7149 11.4098C19.7149 10.4998 20.5666 9.85815 21.8266 9.85815C23.1099 9.85815 23.9849 10.4998 24.0783 11.5382H25.9799C25.9333 9.56648 24.3116 8.23648 21.8383 8.23648C19.4116 8.23648 17.6849 9.57815 17.6849 11.5615C17.6849 13.1598 18.6533 14.1515 20.7183 14.6181L22.1649 14.9565C23.5766 15.2948 24.1483 15.7498 24.1483 16.5665C24.1483 17.4998 23.2149 18.1648 21.8616 18.1648C20.5083 18.1648 19.4699 17.4998 19.3533 16.4615H17.4166Z" fill="#2B2B2B"/>
</svg>
