<svg width="40" height="41" viewBox="0 0 40 41" fill="none" xmlns="http://www.w3.org/2000/svg">
<g clip-path="url(#clip0_934_4520)">
<path d="M30.9873 0.5C35.9648 0.5 40 4.53523 40 9.5127V31.4873C40 36.4648 35.9648 40.5 30.9873 40.5H9.0127C4.03523 40.5 0 36.4648 0 31.4873V9.5127C0 4.53523 4.03523 0.5 9.0127 0.5H30.9873ZM20.0039 8C12.6415 8.00012 6.66699 12.8628 6.66699 18.8252C6.6671 24.175 11.4041 28.6624 17.8164 29.5C18.2537 29.6 18.8409 29.7874 18.9912 30.1621C19.1287 30.4996 19.0793 31.025 19.0293 31.375C18.9293 32 18.8668 32.3794 18.8418 32.5127C18.7918 32.8503 18.5792 33.8244 20.0039 33.2246C21.4289 32.6246 27.6795 28.7123 30.4795 25.4873C32.4043 23.3624 33.3417 21.2125 33.3418 18.8252C33.3418 12.8627 27.3539 8 20.0039 8ZM12.0332 15.7373C12.1706 15.7373 12.2831 15.8499 12.2832 15.9873V20.6123H14.833C14.9705 20.6123 15.0829 20.7249 15.083 20.8623V21.8125C15.083 21.95 14.9705 22.0625 14.833 22.0625H11.083C10.9457 22.0623 10.833 21.9499 10.833 21.8125V15.9873C10.8331 15.85 10.9457 15.7375 11.083 15.7373H12.0332ZM17.083 15.7373C17.221 15.7373 17.3329 15.8493 17.333 15.9873V21.8125C17.333 21.9506 17.2211 22.0625 17.083 22.0625H16.1338C15.9957 22.0625 15.8838 21.9506 15.8838 21.8125V15.9873C15.8839 15.8493 15.9958 15.7373 16.1338 15.7373H17.083ZM19.5205 15.7373C19.5205 15.7456 19.525 15.7499 19.5332 15.75H19.5459L19.5586 15.7627H19.583V15.7754C19.5912 15.7754 19.5956 15.779 19.5957 15.7871H19.6084L19.6211 15.7998C19.6294 15.8081 19.6372 15.8169 19.6455 15.8252C19.6537 15.8334 19.6581 15.8414 19.6582 15.8496L22.3213 19.4375V15.9873C22.3214 15.85 22.4457 15.7375 22.583 15.7373H23.5205C23.6704 15.7373 23.7831 15.8499 23.7832 15.9873V21.8125C23.7832 21.95 23.6705 22.0625 23.5205 22.0625H22.583C22.5582 22.0625 22.5371 22.0581 22.5205 22.0498H22.4961V22.0371H22.4707C22.463 22.0294 22.4584 22.0258 22.458 22.0254C22.45 22.0253 22.4464 22.0208 22.4463 22.0127H22.4336C22.4087 21.9961 22.3877 21.9751 22.3711 21.9502L19.708 18.3496V21.8125C19.708 21.9499 19.5961 22.0623 19.4463 22.0625H18.5088C18.3713 22.0625 18.2461 21.95 18.2461 21.8125V15.9873C18.2462 15.8499 18.3713 15.7373 18.5088 15.7373H19.5205ZM28.6963 15.7373C28.8335 15.7376 28.9462 15.85 28.9463 15.9873V16.9375C28.9463 17.0748 28.8336 17.1873 28.6963 17.1875H26.1455V18.1748H28.6963C28.8335 18.1751 28.9462 18.2875 28.9463 18.4248V19.375C28.9463 19.5123 28.8336 19.6248 28.6963 19.625H26.1455V20.6123H28.6963C28.8335 20.6126 28.9462 20.725 28.9463 20.8623V21.8125C28.9463 21.9498 28.8336 22.0623 28.6963 22.0625H24.9463C24.8088 22.0625 24.6963 21.95 24.6963 21.8125V15.9873C24.6964 15.8499 24.8088 15.7373 24.9463 15.7373H28.6963Z" fill="#06C755"/>
</g>
<defs>
<clipPath id="clip0_934_4520">
<rect width="40" height="40" fill="white" transform="translate(0 0.5)"/>
</clipPath>
</defs>
</svg>
