<svg width="24" height="24" viewBox="0 0 24 24" fill="none" xmlns="http://www.w3.org/2000/svg">
<path d="M12.776 11.85H11.25V9.75H12.776C13.136 9.75 13.356 9.882 13.498 10.049C13.653 10.231 13.75 10.501 13.75 10.8C13.75 11.099 13.653 11.369 13.498 11.551C13.356 11.718 13.135 11.85 12.776 11.85Z" fill="#FFC400"/>
<path d="M2.25 12C2.25 6.615 6.615 2.25 12 2.25C17.385 2.25 21.75 6.615 21.75 12C21.75 17.385 17.385 21.75 12 21.75C6.615 21.75 2.25 17.385 2.25 12ZM10.5 8.25C10.3011 8.25 10.1103 8.32902 9.96967 8.46967C9.82902 8.61032 9.75 8.80109 9.75 9V15C9.75 15.1989 9.82902 15.3897 9.96967 15.5303C10.1103 15.671 10.3011 15.75 10.5 15.75C10.6989 15.75 10.8897 15.671 11.0303 15.5303C11.171 15.3897 11.25 15.1989 11.25 15V13.35H12.776C13.566 13.35 14.207 13.032 14.64 12.524C15.06 12.031 15.25 11.401 15.25 10.8C15.25 10.199 15.06 9.569 14.64 9.076C14.207 8.568 13.565 8.25 12.776 8.25H10.5Z" fill="#FFC400"/>
</svg>
