<svg width="16" height="20" viewBox="0 0 16 20" fill="none" xmlns="http://www.w3.org/2000/svg">
<path d="M6.13393 8.53588L7.74493 7.05988C8.18543 6.65551 8.49504 6.12873 8.63402 5.54715C8.773 4.96556 8.73501 4.35572 8.52493 3.79588L7.83793 1.96138C7.58127 1.27651 7.07315 0.715253 6.41709 0.391962C5.76103 0.0686718 5.0064 0.00766781 4.30693 0.221379C1.73293 1.00888 -0.245567 3.40138 0.363433 6.24238C0.763933 8.11138 1.53043 10.4574 2.98243 12.9534C4.43743 15.4554 6.09943 17.3034 7.52443 18.6024C9.67543 20.5599 12.7504 20.0709 14.7289 18.2259C15.259 17.7312 15.5805 17.0531 15.6282 16.3297C15.6758 15.6062 15.446 14.8918 14.9854 14.3319L13.7254 12.8019C13.3454 12.3392 12.8356 12.0008 12.2617 11.8303C11.6878 11.6597 11.0759 11.6648 10.5049 11.8449L8.42293 12.5004C7.88495 11.9458 7.41374 11.3301 7.01893 10.6659C6.63795 9.99421 6.34074 9.27837 6.13393 8.53438" fill="#2B2B2B"/>
</svg>
