<svg width="40" height="41" viewBox="0 0 40 41" fill="none" xmlns="http://www.w3.org/2000/svg">
<circle cx="20" cy="20.5" r="20" fill="#FEE500"/>
<path d="M20.0579 10.1523C13.8355 10.1523 8.81738 14.1668 8.81738 19.0403C8.81738 22.2037 10.9049 24.9737 14.0362 26.5554L12.9764 30.5137C12.9564 30.573 12.9533 30.6367 12.9675 30.6977C12.9817 30.7586 13.0125 30.8145 13.0567 30.8589C13.121 30.9156 13.2037 30.947 13.2895 30.9472C13.3606 30.9415 13.4281 30.9134 13.4822 30.8669L18.0426 27.7919C18.7158 27.8848 19.3944 27.933 20.0739 27.9363C26.2883 27.9363 31.3144 23.9219 31.3144 19.0403C31.3144 14.1587 26.2723 10.1523 20.0579 10.1523Z" fill="#392020"/>
<path d="M12.7511 17.6357H11.5226C11.3704 17.6401 11.22 17.6011 11.0891 17.5233C11.0309 17.4869 10.981 17.4388 10.9423 17.3822C10.9036 17.3255 10.877 17.2615 10.8643 17.1941C10.8604 17.1514 10.8604 17.1084 10.8643 17.0657C10.8604 16.9857 10.876 16.906 10.9095 16.8333C10.943 16.7606 10.9936 16.6971 11.0569 16.6482C11.1969 16.5468 11.3659 16.4933 11.5387 16.4956H15.24C15.3935 16.4902 15.5449 16.5323 15.6736 16.616C15.7331 16.6508 15.7841 16.6985 15.823 16.7554C15.8619 16.8123 15.8876 16.8772 15.8984 16.9452C15.9023 16.9853 15.9023 17.0256 15.8984 17.0657C15.9022 17.1468 15.8867 17.2276 15.8532 17.3016C15.8197 17.3756 15.7692 17.4405 15.7057 17.4912C15.5691 17.5924 15.4018 17.6435 15.232 17.6357H14.0437V21.8589C14.0485 21.9489 14.0346 22.0389 14.0028 22.1232C13.971 22.2075 13.9221 22.2843 13.859 22.3487C13.7986 22.4103 13.7259 22.4585 13.6457 22.4903C13.5655 22.5221 13.4796 22.5368 13.3934 22.5333C13.2426 22.5376 13.095 22.4895 12.9759 22.3969C12.8624 22.3065 12.7855 22.1782 12.7591 22.0356C12.7511 21.9769 12.7511 21.9176 12.7591 21.8589L12.7511 17.6357Z" fill="#FEE500"/>
<path d="M16.2529 16.8079C16.2883 16.6758 16.3712 16.5614 16.4858 16.4867C16.6079 16.4175 16.747 16.3841 16.8872 16.3904H17.1923C17.3411 16.3851 17.4884 16.4212 17.6179 16.4948C17.755 16.587 17.8525 16.7274 17.8908 16.8882L19.4966 21.4245C19.5383 21.5429 19.5731 21.6636 19.601 21.7859C19.6037 21.8367 19.6037 21.8876 19.601 21.9384C19.6037 22.0167 19.5893 22.0946 19.5588 22.1667C19.5283 22.2388 19.4824 22.3034 19.4244 22.3559C19.3681 22.4136 19.3006 22.459 19.226 22.4894C19.1514 22.5198 19.0713 22.5345 18.9908 22.5325C18.867 22.5449 18.7426 22.5152 18.6377 22.4482C18.5329 22.3812 18.4536 22.2808 18.4127 22.1632L18.0755 21.1757H15.9639L15.6267 22.1632C15.5868 22.2831 15.5066 22.3854 15.3997 22.4528C15.2928 22.5201 15.1659 22.5483 15.0406 22.5325C14.9048 22.5361 14.7718 22.4936 14.6632 22.4121C14.5574 22.3279 14.486 22.2081 14.4625 22.0749C14.4582 22.0295 14.4582 21.9838 14.4625 21.9384C14.4487 21.8587 14.4487 21.7773 14.4625 21.6976C14.4625 21.6093 14.5187 21.5129 14.5508 21.4245L16.2529 16.8079ZM17.0558 17.8597L16.2931 20.2684H17.8105L17.0558 17.8597Z" fill="#FEE500"/>
<path d="M19.7849 17.0658C19.7767 16.8856 19.8402 16.7095 19.9615 16.576C20.0232 16.5139 20.0972 16.4652 20.1788 16.4334C20.2604 16.4016 20.3477 16.3872 20.4352 16.3913C20.5856 16.3895 20.7324 16.4376 20.8527 16.5278C20.9642 16.622 21.0383 16.753 21.0615 16.8971C21.0694 16.953 21.0694 17.0099 21.0615 17.0658V21.289H23.2694C23.4225 21.287 23.5729 21.3287 23.703 21.4094C23.7614 21.4454 23.8117 21.4934 23.8504 21.5501C23.8891 21.6068 23.9155 21.671 23.9278 21.7386C23.9278 21.7386 23.9278 21.8189 23.9278 21.859C23.9316 21.939 23.9161 22.0186 23.8826 22.0913C23.849 22.164 23.7984 22.2276 23.7351 22.2766C23.5951 22.3779 23.4262 22.4314 23.2534 22.4291H20.5396C20.3668 22.4402 20.195 22.3952 20.0498 22.3007C19.92 22.2036 19.8335 22.0594 19.809 21.8992C19.8031 21.811 19.8031 21.7224 19.809 21.6342L19.7849 17.0658Z" fill="#FEE500"/>
<path d="M24.0727 17.0652C24.0679 16.8856 24.1309 16.7107 24.2493 16.5755C24.3696 16.4661 24.524 16.4016 24.6864 16.3928C24.8487 16.384 25.0091 16.4315 25.1405 16.5273C25.2545 16.6206 25.3314 16.7515 25.3573 16.8965C25.3613 16.9527 25.3613 17.0091 25.3573 17.0652V19.0323L27.3886 16.6878C27.4669 16.6078 27.55 16.5328 27.6375 16.4631C27.72 16.4139 27.8145 16.3888 27.9105 16.3907C28.0508 16.39 28.1881 16.432 28.3039 16.5112C28.3585 16.5479 28.4051 16.5954 28.441 16.6505C28.4769 16.7057 28.5012 16.7675 28.5127 16.8324C28.5159 16.8482 28.5159 16.8647 28.5127 16.8806C28.5088 16.8991 28.5088 16.9182 28.5127 16.9367C28.5124 17.0212 28.4903 17.1042 28.4484 17.1776C28.4058 17.2554 28.3547 17.328 28.2959 17.3943L26.9631 18.8557L28.5689 21.3446V21.4249C28.6522 21.5399 28.7172 21.6673 28.7616 21.8023V21.8424C28.7709 21.9354 28.7574 22.0293 28.7225 22.116C28.6875 22.2027 28.6321 22.2796 28.5608 22.3402C28.4269 22.4414 28.263 22.4951 28.0952 22.4928C27.9836 22.4974 27.8728 22.4724 27.774 22.4205C27.6671 22.3487 27.579 22.2524 27.5171 22.1395L26.0237 19.7308L25.3091 20.4775V21.8183C25.3139 21.9979 25.2509 22.1728 25.1325 22.308C25.069 22.3701 24.9936 22.4185 24.9107 22.4503C24.8279 22.482 24.7394 22.4965 24.6508 22.4928C24.5026 22.4959 24.3579 22.4476 24.2413 22.3563C24.1279 22.2659 24.0509 22.1376 24.0245 21.995C24.0166 21.9364 24.0166 21.8769 24.0245 21.8183L24.0727 17.0652Z" fill="#FEE500"/>
</svg>
