<svg width="20" height="17" viewBox="0 0 20 17" fill="none" xmlns="http://www.w3.org/2000/svg">
<path d="M13.58 13.3L10 11L6.42 13.3L7.5 9.18L4.21 6.5L8.46 6.24L10 2.3L11.54 6.24L15.79 6.5L12.5 9.18M18 8.5C18 7.96957 18.2107 7.46086 18.5858 7.08579C18.9609 6.71071 19.4696 6.5 20 6.5V2.5C20 1.96957 19.7893 1.46086 19.4142 1.08579C19.0391 0.710714 18.5304 0.5 18 0.5H2C1.46957 0.5 0.960859 0.710714 0.585786 1.08579C0.210714 1.46086 0 1.96957 0 2.5V6.5C0.530433 6.5 1.03914 6.71071 1.41421 7.08579C1.78929 7.46086 2 7.96957 2 8.5C2 9.03043 1.78929 9.53914 1.41421 9.91421C1.03914 10.2893 0.530433 10.5 0 10.5V14.5C0 15.0304 0.210714 15.5391 0.585786 15.9142C0.960859 16.2893 1.46957 16.5 2 16.5H18C18.5304 16.5 19.0391 16.2893 19.4142 15.9142C19.7893 15.5391 20 15.0304 20 14.5V10.5C19.4696 10.5 18.9609 10.2893 18.5858 9.91421C18.2107 9.53914 18 9.03043 18 8.5Z" fill="#919EAB"/>
</svg>
