<svg width="24" height="24" viewBox="0 0 24 24" fill="none" xmlns="http://www.w3.org/2000/svg">
<path fill-rule="evenodd" clip-rule="evenodd" d="M16.7999 7.19991C17.0363 6.88474 17.2083 6.5261 17.306 6.14446C17.4038 5.76282 17.4255 5.36566 17.3698 4.97565C17.314 4.58564 17.182 4.21043 16.9813 3.87143C16.7806 3.53244 16.5151 3.23629 16.1999 2.99991C15.8847 2.76354 15.5261 2.59155 15.1444 2.49377C14.7628 2.396 14.3656 2.37435 13.9756 2.43007C13.5856 2.48578 13.2104 2.61777 12.8714 2.81849C12.5324 3.01921 12.2363 3.28474 11.9999 3.59991C11.5225 2.9634 10.8118 2.54259 10.0242 2.43007C9.23651 2.31754 8.43642 2.52252 7.7999 2.99991C7.16338 3.4773 6.74258 4.188 6.63005 4.97565C6.51753 5.7633 6.72251 6.5634 7.1999 7.19991H3.8999C3.0719 7.19991 2.3999 7.87192 2.3999 8.69992V9.29992C2.3999 10.1279 3.0719 10.7999 3.8999 10.7999H11.0999V7.19991H12.8999V10.7999H20.0999C20.9279 10.7999 21.5999 10.1279 21.5999 9.29992V8.69992C21.5999 7.87192 20.9279 7.19991 20.0999 7.19991H16.7999ZM15.5999 5.39991C15.5999 5.71817 15.4735 6.0234 15.2484 6.24844C15.0234 6.47349 14.7182 6.59992 14.3999 6.59992H13.1999V5.39991C13.1999 5.08166 13.3263 4.77643 13.5514 4.55139C13.7764 4.32634 14.0816 4.19991 14.3999 4.19991C14.7182 4.19991 15.0234 4.32634 15.2484 4.55139C15.4735 4.77643 15.5999 5.08166 15.5999 5.39991ZM8.3999 5.39991C8.3999 5.71817 8.52633 6.0234 8.75137 6.24844C8.97642 6.47349 9.28164 6.59992 9.5999 6.59992H10.7999V5.39991C10.7999 5.08166 10.6735 4.77643 10.4484 4.55139C10.2234 4.32634 9.91816 4.19991 9.5999 4.19991C9.28164 4.19991 8.97642 4.32634 8.75137 4.55139C8.52633 4.77643 8.3999 5.08166 8.3999 5.39991Z" fill="#B0B8C1"/>
<path d="M11.1001 12.6001H3.6001V18.3001C3.6001 19.1753 3.94778 20.0147 4.56665 20.6336C5.18552 21.2524 6.02488 21.6001 6.9001 21.6001H11.1001V12.6001ZM12.9001 21.6001V12.6001H20.4001V18.3001C20.4001 19.1753 20.0524 20.0147 19.4335 20.6336C18.8147 21.2524 17.9753 21.6001 17.1001 21.6001H12.9001Z" fill="#B0B8C1"/>
</svg>
