<svg width="24" height="24" viewBox="0 0 24 24" fill="none" xmlns="http://www.w3.org/2000/svg">
<path d="M22.5 2H1.5V22.704L6.876 18H22.5V2ZM8.288 6.555C8.77439 6.06868 9.42535 5.78229 10.1125 5.7523C10.7997 5.72231 11.4731 5.95091 12 6.393C12.5423 5.93321 13.2416 5.70134 13.9512 5.74604C14.6608 5.79073 15.3255 6.10852 15.8059 6.63272C16.2862 7.15692 16.5449 7.84679 16.5275 8.55757C16.5102 9.26836 16.2183 9.94481 15.713 10.445L12 14.157L8.288 10.444C7.7723 9.92828 7.48259 9.22882 7.48259 8.4995C7.48259 7.77018 7.7723 7.07072 8.288 6.555Z" fill="#FFC400"/>
</svg>
