<svg width="33" height="32" viewBox="0 0 33 32" fill="none" xmlns="http://www.w3.org/2000/svg">
<rect x="0.5" width="32" height="32" rx="16" fill="#FFF6C9"/>
<path d="M17.0276 7.75644C17.6859 7.70644 18.2359 8.0806 18.5134 8.58144L19.5301 10.4231C20.9817 10.3298 22.0984 10.8664 22.9034 11.5881C23.7859 12.3798 24.2801 13.3748 24.5117 13.9414C24.7617 14.5523 24.5767 15.1914 24.1867 15.6098L22.7484 17.1464C23.2867 18.4981 23.1209 19.7256 22.6834 20.7148C22.2034 21.7981 21.4092 22.5756 20.9417 22.9714C20.4384 23.3981 19.7734 23.4198 19.2551 23.1773L17.3492 22.2848C16.2301 23.2139 15.0109 23.4356 13.9359 23.3248C12.7567 23.2039 11.7717 22.6889 11.2509 22.3664C10.6892 22.0189 10.4634 21.3931 10.5342 20.8256L10.7942 18.7373C9.56422 17.9598 8.97672 16.8689 8.74922 15.8123C8.50089 14.6539 8.68589 13.5581 8.83172 12.9623C8.98839 12.3214 9.51339 11.9123 10.0751 11.8048L12.1417 11.4064C12.5009 9.99727 13.3567 9.1006 14.2917 8.55894C15.3167 7.96394 16.4167 7.80144 17.0276 7.75644Z" fill="#FFD700"/>
</svg>
