<svg width="18" height="18" viewBox="0 0 18 18" fill="none" xmlns="http://www.w3.org/2000/svg">
<path d="M15.0641 12.1001C14.7053 11.482 14.1719 9.73305 14.1719 7.44878C14.1719 6.07697 13.6269 4.76135 12.6569 3.79133C11.6869 2.82132 10.3713 2.27637 8.99948 2.27637C7.62767 2.27637 6.31205 2.82132 5.34203 3.79133C4.37202 4.76135 3.82707 6.07697 3.82707 7.44878C3.82707 9.73369 3.29302 11.482 2.93418 12.1001C2.84254 12.2572 2.79397 12.4357 2.79334 12.6176C2.79272 12.7995 2.84007 12.9784 2.93062 13.1362C3.02118 13.2939 3.15173 13.425 3.30912 13.5162C3.46651 13.6074 3.64516 13.6555 3.82707 13.6557H6.46565C6.58498 14.2396 6.90234 14.7644 7.36405 15.1413C7.82576 15.5182 8.40347 15.7241 8.99948 15.7241C9.59549 15.7241 10.1732 15.5182 10.6349 15.1413C11.0966 14.7644 11.414 14.2396 11.5333 13.6557H14.1719C14.3537 13.6554 14.5323 13.6073 14.6896 13.516C14.8469 13.4247 14.9774 13.2936 15.0679 13.1359C15.1583 12.9781 15.2056 12.7993 15.205 12.6175C15.2043 12.4356 15.1557 12.2572 15.0641 12.1001ZM8.99948 14.6902C8.67868 14.6901 8.36579 14.5905 8.10388 14.4053C7.84197 14.22 7.64392 13.9581 7.53698 13.6557H10.462C10.355 13.9581 10.157 14.22 9.89509 14.4053C9.63318 14.5905 9.32029 14.6901 8.99948 14.6902ZM3.82707 12.6212C4.32491 11.7652 4.86155 9.78154 4.86155 7.44878C4.86155 6.35133 5.29751 5.29883 6.07352 4.52282C6.84954 3.74681 7.90203 3.31085 8.99948 3.31085C10.0969 3.31085 11.1494 3.74681 11.9254 4.52282C12.7015 5.29883 13.1374 6.35133 13.1374 7.44878C13.1374 9.7796 13.6728 11.7632 14.1719 12.6212H3.82707Z" fill="white"/>
</svg>
