<svg width="20" height="20" viewBox="0 0 20 20" fill="none" xmlns="http://www.w3.org/2000/svg">
<path d="M10 0.25C8.07164 0.25 6.18657 0.821828 4.58319 1.89317C2.97982 2.96452 1.73013 4.48726 0.992179 6.26884C0.254225 8.05042 0.061142 10.0108 0.437348 11.9021C0.813554 13.7934 1.74215 15.5307 3.10571 16.8943C4.46928 18.2579 6.20656 19.1865 8.09787 19.5627C9.98919 19.9389 11.9496 19.7458 13.7312 19.0078C15.5127 18.2699 17.0355 17.0202 18.1068 15.4168C19.1782 13.8134 19.75 11.9284 19.75 10C19.7468 7.41513 18.7185 4.93705 16.8907 3.10927C15.063 1.28149 12.5849 0.253225 10 0.25ZM13.4163 10.6244L8.91625 13.6244C8.79283 13.7062 8.64807 13.7499 8.5 13.75C8.30109 13.75 8.11033 13.671 7.96967 13.5303C7.82902 13.3897 7.75 13.1989 7.75 13V7C7.74992 6.86419 7.78671 6.7309 7.85645 6.61436C7.9262 6.49782 8.02628 6.40241 8.14601 6.33831C8.26575 6.27421 8.40064 6.24382 8.5363 6.25039C8.67195 6.25696 8.80328 6.30025 8.91625 6.37562L13.4163 9.37562C13.5191 9.44409 13.6035 9.53691 13.6618 9.64584C13.7202 9.75477 13.7507 9.87643 13.7507 10C13.7507 10.1236 13.7202 10.2452 13.6618 10.3542C13.6035 10.4631 13.5191 10.5559 13.4163 10.6244Z" fill="#9D7AFF"/>
</svg>
