<svg width="24" height="24" viewBox="0 0 24 24" fill="none" xmlns="http://www.w3.org/2000/svg">
<path d="M20.889 2C20.889 2 20.932 2.051 21 2.147C21.281 2.537 22 3.667 22 4.999C22 5.839 21.617 6.597 21 7.141C20.3527 7.70157 19.5233 8.00697 18.667 8C17.9619 8.00357 17.2716 7.79828 16.683 7.41C15.864 6.864 15.333 5.988 15.333 5C15.333 5.988 14.803 6.864 13.983 7.41C13.429 7.78 12.743 8 12 8C11.2949 8.00357 10.6046 7.79828 10.016 7.41C9.197 6.864 8.666 5.988 8.666 5C8.666 5.988 8.136 6.864 7.316 7.41C6.762 7.78 6.076 8 5.333 8C4.47661 8.00669 3.64715 7.70093 3 7.14C2.383 6.597 2 5.838 2 5C2 3.668 2.719 2.539 3 2.148C3.069 2.052 3.111 2.001 3.111 2.001L20.889 2ZM18.667 9.999C19.479 9.999 20.277 9.819 21 9.489V19.996H22V22H16.5V14H7.5V22H2V19.996H3V9.49C3.73203 9.82542 4.52778 9.99904 5.333 9.999C6.543 9.999 7.725 9.599 8.666 8.9C9.63168 9.61266 10.7998 9.99807 12 10C13.21 10 14.392 9.6 15.333 8.901C16.2988 9.6133 17.4669 9.99836 18.667 10" fill="#B0B8C1"/>
<path d="M9.5 22V16H14.5V22H9.5Z" fill="#B0B8C1"/>
</svg>
