<svg width="47" height="38" viewBox="0 0 47 38" fill="none" xmlns="http://www.w3.org/2000/svg">
<path d="M31.7038 29.9993L23.4997 24.7285L15.2955 29.9993L17.7705 20.5577L10.2309 14.416L19.9705 13.8202L23.4997 4.79102L27.0288 13.8202L36.7684 14.416L29.2288 20.5577M41.833 18.9993C41.833 17.7838 42.3159 16.618 43.1754 15.7584C44.035 14.8989 45.2008 14.416 46.4163 14.416V5.24935C46.4163 4.03377 45.9335 2.86798 45.0739 2.00844C44.2144 1.1489 43.0486 0.666016 41.833 0.666016H5.16634C3.95077 0.666016 2.78498 1.1489 1.92543 2.00844C1.06589 2.86798 0.583008 4.03377 0.583008 5.24935V14.416C1.79858 14.416 2.96437 14.8989 3.82391 15.7584C4.68346 16.618 5.16634 17.7838 5.16634 18.9993C5.16634 20.2149 4.68346 21.3807 3.82391 22.2403C2.96437 23.0998 1.79858 23.5827 0.583008 23.5827V32.7493C0.583008 33.9649 1.06589 35.1307 1.92543 35.9903C2.78498 36.8498 3.95077 37.3327 5.16634 37.3327H41.833C43.0486 37.3327 44.2144 36.8498 45.0739 35.9903C45.9335 35.1307 46.4163 33.9649 46.4163 32.7493V23.5827C45.2008 23.5827 44.035 23.0998 43.1754 22.2403C42.3159 21.3807 41.833 20.2149 41.833 18.9993Z" fill="#86360C"/>
</svg>
