<svg width="46" height="38" viewBox="0 0 46 38" fill="none" xmlns="http://www.w3.org/2000/svg">
<path d="M31.2038 29.9993L22.9997 24.7285L14.7955 29.9993L17.2705 20.5577L9.73092 14.416L19.4705 13.8202L22.9997 4.79102L26.5288 13.8202L36.2684 14.416L28.7288 20.5577M41.333 18.9993C41.333 17.7838 41.8159 16.618 42.6754 15.7584C43.535 14.8989 44.7008 14.416 45.9163 14.416V5.24935C45.9163 4.03377 45.4335 2.86798 44.5739 2.00844C43.7144 1.1489 42.5486 0.666016 41.333 0.666016H4.66634C3.45077 0.666016 2.28498 1.1489 1.42543 2.00844C0.565893 2.86798 0.0830078 4.03377 0.0830078 5.24935V14.416C1.29858 14.416 2.46437 14.8989 3.32391 15.7584C4.18346 16.618 4.66634 17.7838 4.66634 18.9993C4.66634 20.2149 4.18346 21.3807 3.32391 22.2403C2.46437 23.0998 1.29858 23.5827 0.0830078 23.5827V32.7493C0.0830078 33.9649 0.565893 35.1307 1.42543 35.9903C2.28498 36.8498 3.45077 37.3327 4.66634 37.3327H41.333C42.5486 37.3327 43.7144 36.8498 44.5739 35.9903C45.4335 35.1307 45.9163 33.9649 45.9163 32.7493V23.5827C44.7008 23.5827 43.535 23.0998 42.6754 22.2403C41.8159 21.3807 41.333 20.2149 41.333 18.9993Z" fill="#FFC506"/>
</svg>
