<svg width="24" height="24" viewBox="0 0 24 24" fill="none" xmlns="http://www.w3.org/2000/svg">
<path fill-rule="evenodd" clip-rule="evenodd" d="M19 4.98853V5.99953C19.5304 5.99953 20.0391 6.21024 20.4142 6.58531C20.7893 6.96039 21 7.46909 21 7.99953V17.9995C21 18.53 20.7893 19.0387 20.4142 19.4137C20.0391 19.7888 19.5304 19.9995 19 19.9995H5C4.46957 19.9995 3.96086 19.7888 3.58579 19.4137C3.21071 19.0387 3 18.53 3 17.9995V7.99953C3 6.95453 3.835 6.00653 4.813 5.72753L15.813 2.58453C16.1851 2.47818 16.5768 2.45967 16.9573 2.53045C17.3377 2.60123 17.6966 2.75938 18.0055 2.99242C18.3145 3.22547 18.5651 3.52706 18.7377 3.87344C18.9102 4.21982 19 4.60154 19 4.98853ZM15.5 11.4995C15.1022 11.4995 14.7206 11.6576 14.4393 11.9389C14.158 12.2202 14 12.6017 14 12.9995C14 13.3974 14.158 13.7789 14.4393 14.0602C14.7206 14.3415 15.1022 14.4995 15.5 14.4995C15.8978 14.4995 16.2794 14.3415 16.5607 14.0602C16.842 13.7789 17 13.3974 17 12.9995C17 12.6017 16.842 12.2202 16.5607 11.9389C16.2794 11.6576 15.8978 11.4995 15.5 11.4995ZM17 4.98853C17.0001 4.91794 16.9852 4.84814 16.9563 4.78372C16.9274 4.71931 16.8853 4.66173 16.8326 4.61478C16.7798 4.56783 16.7178 4.53258 16.6505 4.51133C16.5832 4.49009 16.5121 4.48334 16.442 4.49153L16.362 4.50753L11.14 5.99953H17V4.98853Z" fill="#757575"/>
</svg>
